# xmcd
#
# Track frame offsets:
#	150
#	18258
#	35690
#	53225
#	75608
#	94209
#	108751
#	126810
#	143272
#	163386
#	180955
#	194140
#	207488
#	226909
#	244784
#
# Disc length: 3477 seconds
#
# Revision: 1
# Processed by: cddbd v1.5.2PL0 Copyright (c) Steve Scherf et al.
# Submitted via: audiograbber 1.83.01
#
DISCID=c60d930f
DTITLE=Various Artist - CBP60195
DYEAR=1900
DGENRE=Karaoke
TTITLE0=Clint Black and Steve Wariner - Been There
TTITLE1=Collin Raye - Couldn't Last A Moment
TTITLE2=Shane Minor - I Think You're Beautiful
TTITLE3=Ty Herndon - No Mercy
TTITLE4=Lorrie Morgan - To Get To You
TTITLE5=Brooks and Dunn - Goin' Under Gettin' Over You
TTITLE6=Tamara Walker - Askin' Too Much
TTITLE7=Randy Travis - Where Can I Surrender
TTITLE8=Alabama - Twentieth Century
TTITLE9=Redmon and Vale - In the Name of Love
TTITLE10=Garry Allan - Runaway
TTITLE11=Sawyer Brown - 800 Pound Jesus
TTITLE12=Shania Twain - If You Wanna Touch Her, Ask
TTITLE13=Marty Raybon - Cracker Jack Diamon
TTITLE14=Rebecca Lynn - Out Here In the Water
EXTD=
EXTT0=
EXTT1=
EXTT2=
EXTT3=
EXTT4=
EXTT5=
EXTT6=
EXTT7=
EXTT8=
EXTT9=
EXTT10=
EXTT11=
EXTT12=
EXTT13=
EXTT14=
PLAYORDER=
